<?xml version="1.0" encoding="UTF-8"?>
<svg width="512" height="512" viewBox="0 0 512 512" fill="none" xmlns="http://www.w3.org/2000/svg">
    <!-- 배경 그라데이션 -->
    <defs>
        <linearGradient id="grad1" x1="0%" y1="0%" x2="100%" y2="100%">
            <stop offset="0%" style="stop-color:#4f46e5;stop-opacity:1" />
            <stop offset="100%" style="stop-color:#7c3aed;stop-opacity:1" />
        </linearGradient>
    </defs>
    
    <!-- 원형 배경 -->
    <circle cx="256" cy="256" r="248" fill="url(#grad1)" stroke="white" stroke-width="16"/>
    
    <!-- 책 모양 -->
    <path d="M176 146h160c17.7 0 32 14.3 32 32v160c0 17.7-14.3 32-32 32H176c-17.7 0-32-14.3-32-32V178c0-17.7 14.3-32 32-32z" fill="white"/>
    
    <!-- B 문자 -->
    <path d="M230 196h52c22 0 40 18 40 40s-18 40-40 40h-52v-80z" fill="#4f46e5"/>
    <path d="M230 276h52c22 0 40 18 40 40s-18 40-40 40h-52v-80z" fill="#7c3aed"/>
</svg> 